<svg width="91" height="91" viewBox="0 0 91 91" fill="none" xmlns="http://www.w3.org/2000/svg">
<path d="M85.0984 46.6015L85.1055 46.602C85.8423 46.6677 86.7084 46.7351 87.5321 46.7924C88.2484 46.8422 88.9293 46.8824 89.467 46.9126C89.4742 46.9131 89.4885 46.9141 89.4957 46.9146C89.997 46.9494 90.1782 47.2427 90.1562 47.5579C90.1378 47.8229 89.9675 48.0989 89.7206 48.2329C88.973 48.6343 86.6551 49.675 85.8007 50.1626C85.7333 50.2011 85.695 50.2344 85.6935 50.2559C85.692 50.2774 85.7115 50.3075 85.9908 50.327C86.6641 50.3738 88.9003 50.5077 89.5607 50.5321C89.7976 50.5413 89.9346 50.7452 89.9186 50.9744C89.9042 51.1821 89.7608 51.3809 89.5173 51.3639C89.5101 51.3634 89.5101 51.3634 89.5029 51.3629C89.0026 51.3137 88.3083 51.2582 87.592 51.2084C86.6824 51.1452 85.7436 51.0871 85.1195 51.058C85.1123 51.0575 85.1051 51.057 85.1051 51.057C84.6754 51.0272 84.4466 50.6946 84.47 50.3579C84.486 50.1287 84.6165 49.9075 84.871 49.7669C85.7009 49.3208 88.2437 48.1518 88.9224 47.8103C88.9673 47.7847 89.0639 47.741 89.0664 47.7052C89.0694 47.6622 88.9978 47.6572 88.6683 47.6343C87.9234 47.5825 85.809 47.457 85.0482 47.4257C85.0411 47.4252 85.0411 47.4252 85.0339 47.4247C84.8047 47.4088 84.7112 47.2007 84.7257 46.993C84.7401 46.7853 84.8692 46.5856 85.0984 46.6015Z" fill="black"/>
<path d="M88.2129 56.3023C88.2129 56.3023 88.3516 55.6785 88.4522 55.2008C88.6002 54.4982 88.6172 54.3477 88.3195 54.263C88.1539 54.2134 87.8081 54.148 87.4021 54.0551C87.2616 54.0255 87.2601 54.0325 87.0781 54.8967C87.0101 55.2199 86.939 55.5571 86.9194 55.6851C86.8577 56.0829 86.4853 56.0045 86.4642 56.0001C86.2605 55.9572 86.0904 55.7893 86.1422 55.5434C86.1437 55.5364 86.1466 55.5223 86.1496 55.5083C86.2006 55.3356 86.2639 55.0701 86.3201 54.8031C86.5036 53.9319 86.5113 53.8602 86.3638 53.8291C85.317 53.6086 85.1539 53.5816 85.0315 53.5705C84.7009 53.5376 84.6632 53.647 84.4546 54.6377C84.3673 55.0522 84.2796 55.5033 84.2585 55.6383C84.2555 55.6523 84.2541 55.6594 84.2511 55.6734C84.1993 55.9193 83.9956 56.0158 83.8129 55.9773C83.6232 55.9374 83.4631 55.7569 83.5127 55.4519C83.5249 55.359 83.6037 54.9501 83.6895 54.5426C83.7738 54.1421 83.8667 53.7361 83.8929 53.6463C84.0782 53.0102 84.3944 52.6586 85.0186 52.7607C85.3167 52.8088 85.8366 52.9183 86.4056 53.0381C87.2628 53.2187 88.2168 53.4269 88.6565 53.5342C89.2156 53.6666 89.4337 54.0941 89.3419 54.6691C89.3223 54.797 89.245 55.199 89.1622 55.5924C89.0778 55.9929 88.9894 56.3778 88.9602 56.4817C88.8899 56.7457 88.6876 56.8352 88.505 56.7967C88.3153 56.7568 88.1567 56.5693 88.2129 56.3023Z" fill="black"/>
<path d="M82.1982 61.8359C81.7939 61.5634 81.6714 61.1504 81.7888 60.834C81.9012 60.5311 82.2357 60.3106 82.772 60.3717C83.5505 60.4613 85.7604 60.8829 86.3533 61.0186C86.4458 61.0376 86.487 61.0299 86.4945 61.0097C86.502 60.9895 86.4623 60.9518 86.3933 60.9109C85.8132 60.5962 84.0213 59.5639 83.2732 59.0413C82.8334 58.7404 82.7202 58.3231 82.8401 58C82.9624 57.6701 83.3154 57.4412 83.8308 57.5175C87.5042 58.0607 88.0507 58.1563 88.1719 58.2012C88.4075 58.2886 88.4513 58.5422 88.3764 58.7442C88.3064 58.9327 88.138 59.077 87.9303 59.0382C83.8099 58.2755 83.7646 58.274 83.7296 58.3683C83.7096 58.4221 83.7662 58.4967 83.8597 58.5544C84.371 58.8895 86.2758 60.0096 87.1062 60.5168C87.4447 60.7189 87.5039 61.0549 87.4015 61.3308C87.2916 61.627 87 61.8558 86.6612 61.799C85.8388 61.6625 83.7753 61.2799 82.942 61.1316C82.82 61.1093 82.7671 61.128 82.7547 61.1617C82.7197 61.2559 82.7047 61.2963 86.2865 63.4903C86.4667 63.6031 86.4985 63.8063 86.4361 63.9746C86.3587 64.1833 86.1442 64.3488 85.9288 64.2689C85.8009 64.2214 84.3311 63.2704 82.1982 61.8359Z" fill="black"/>
<path d="M80.3574 66.9329C79.6847 66.5618 79.3088 65.6083 79.8706 64.5898C80.4358 63.5651 81.3118 63.3595 81.6199 63.5294C81.8273 63.6439 81.8776 63.9094 81.7771 64.0917C81.7216 64.1923 81.6158 64.2652 81.4673 64.2817C81.1445 64.3168 80.786 64.5208 80.5398 64.9672C80.1583 65.6587 80.5466 66.0697 80.7478 66.1807C80.9992 66.3194 81.3528 66.3176 81.7154 66.0913C82.0252 65.9014 82.4011 65.6659 82.7358 65.416C83.2924 65.0015 83.8775 64.9962 84.3113 65.2355C84.9211 65.5719 85.2352 66.3848 84.7567 67.2523C84.2781 68.1199 83.5892 68.3877 83.2937 68.2247C83.1051 68.1207 83.0158 67.8664 83.1233 67.6715C83.1753 67.5772 83.2783 67.4946 83.4372 67.4592C83.6351 67.4126 83.9102 67.2856 84.1252 66.8958C84.3471 66.4934 84.2309 66.1095 83.948 65.9535C83.7531 65.846 83.4735 65.8475 83.1763 66.0444C82.8958 66.2258 82.4553 66.5486 82.1386 66.7511C81.4461 67.1891 80.8226 67.1895 80.3574 66.9329Z" fill="black"/>
<path d="M76.6037 71.5548L76.5985 71.5499C76.4151 71.3781 76.468 71.1326 76.6152 70.9754C76.7625 70.8182 77.0041 70.7493 77.1875 70.9211L77.1927 70.926C77.8117 71.5255 78.4992 72.1989 79.1752 72.832C79.673 73.2983 80.1596 73.7345 80.5988 74.1163C80.8287 74.312 80.6655 74.6018 80.5772 74.6961C80.4348 74.8481 80.2037 74.9267 80.0308 74.7648C80.0256 74.7599 80.0256 74.7599 80.0203 74.755C79.5952 74.3371 79.1075 73.8705 78.5992 73.3944C77.9442 72.7809 77.2581 72.148 76.6037 71.5548Z" fill="black"/>
<path d="M75.4375 72.7261L75.4421 72.7315C75.9128 73.3021 76.473 73.9662 77.0106 74.5928C77.4781 75.1378 77.9277 75.6508 78.2837 76.0548C78.2884 76.0602 78.2978 76.0711 78.3024 76.0766C78.6297 76.458 78.5481 76.793 78.3083 76.9986C78.1067 77.1716 77.7905 77.2442 77.5218 77.1625C76.711 76.9121 74.3424 75.9927 73.3953 75.7268C73.3205 75.7058 73.2699 75.7019 73.2536 75.7159C73.2372 75.7299 73.2294 75.765 73.4118 75.9775C73.8512 76.4898 75.3262 78.1759 75.7726 78.6632C75.9323 78.8384 75.8834 79.079 75.709 79.2286C75.551 79.3642 75.3088 79.4017 75.1498 79.2164C75.1452 79.211 75.1452 79.211 75.1405 79.2055C74.8241 78.8147 74.3761 78.2815 73.9086 77.7365C73.3149 77.0445 72.697 76.3353 72.2794 75.8706C72.2747 75.8651 72.2701 75.8597 72.2701 75.8597C71.9896 75.5327 72.0657 75.1363 72.3218 74.9165C72.4962 74.7669 72.7454 74.7045 73.0242 74.787C73.9246 75.0646 76.5424 76.054 77.2621 76.2974C77.312 76.3114 77.4109 76.3496 77.4381 76.3262C77.4708 76.2981 77.4241 76.2436 77.209 75.993C76.7228 75.4262 75.3274 73.8327 74.8155 73.2691C74.8108 73.2637 74.8108 73.2637 74.8061 73.2582C74.6565 73.0839 74.739 72.8712 74.897 72.7357C75.055 72.6001 75.2879 72.5517 75.4375 72.7261Z" fill="black"/>
<path d="M70.7007 76.5944L70.7046 76.6004C71.1565 77.3256 72.566 79.4923 72.9573 80.137C73.2571 80.6271 73.1073 81.0831 72.6345 81.423C72.5299 81.4992 72.1962 81.7236 71.8706 81.9341C71.539 82.1485 71.2095 82.353 71.1152 82.4054C70.8783 82.5415 70.6723 82.461 70.5709 82.3042C70.4657 82.1414 70.487 81.8968 70.7161 81.7486C70.7161 81.7486 71.2446 81.4155 71.6425 81.1582C72.2213 80.7839 72.3522 80.6822 72.2026 80.4112C72.1211 80.2587 71.9162 79.9551 71.6962 79.6016C71.6182 79.481 71.6122 79.4849 70.9067 79.941C70.6475 80.1086 70.3822 80.2802 70.2776 80.3564C69.9516 80.5928 69.745 80.2733 69.7333 80.2552C69.6203 80.0803 69.6196 79.8413 69.8306 79.7049C69.8367 79.701 69.8487 79.6932 69.8608 79.6854C70.0193 79.6 70.2342 79.4696 70.4513 79.3292C71.1205 78.8965 71.211 78.838 71.1252 78.7053C70.8913 78.3436 70.4135 77.618 70.164 77.2321C70.1016 77.1356 70.0509 77.0572 70.0237 77.015C69.9049 76.8182 70.0096 76.5966 70.1784 76.4875C70.3412 76.3822 70.5642 76.3833 70.7007 76.5944Z" fill="black"/>
<path d="M64.2877 79.6766C65.7283 79.0289 67.2652 79.5581 67.9512 81.0839C68.6136 82.5573 68.013 84.1105 66.5724 84.7582C65.1317 85.4059 63.5648 84.8273 62.9023 83.3539C62.2163 81.8281 62.847 80.3244 64.2877 79.6766ZM64.5968 80.3642C63.6277 80.8 63.1686 81.8801 63.675 83.0065C64.1844 84.1393 65.3 84.5195 66.2691 84.0837C67.2383 83.648 67.6943 82.5613 67.185 81.4284C66.6786 80.3021 65.566 79.9285 64.5968 80.3642Z" fill="black"/>
<path d="M58.4393 82.9316L58.4411 82.9386C58.618 83.6568 58.8351 84.498 59.048 85.2957C59.2332 85.9894 59.4161 86.6466 59.5619 87.165C59.5637 87.172 59.5674 87.1858 59.5693 87.1928C59.6989 87.6783 59.4802 87.9448 59.175 88.0263C58.9183 88.0948 58.6019 88.0232 58.3952 87.8331C57.773 87.2561 56.0368 85.401 55.2985 84.7509C55.2402 84.6996 55.1962 84.6742 55.1754 84.6797C55.1546 84.6853 55.1324 84.7135 55.2046 84.984C55.3787 85.6361 55.9772 87.7949 56.1684 88.4275C56.2364 88.6546 56.088 88.8503 55.866 88.9095C55.6649 88.9632 55.4304 88.892 55.3674 88.6562C55.3656 88.6492 55.3656 88.6492 55.3637 88.6423C55.248 88.153 55.0753 87.4783 54.8901 86.7846C54.655 85.9036 54.4055 84.9967 54.2305 84.3969C54.2286 84.39 54.2268 84.383 54.2268 84.383C54.1157 83.9668 54.3561 83.6425 54.6821 83.5555C54.9041 83.4963 55.1557 83.548 55.3713 83.7431C56.0624 84.3835 57.9929 86.4097 58.536 86.941C58.5749 86.9752 58.6475 87.0524 58.6822 87.0431C58.7238 87.032 58.7053 86.9626 58.6201 86.6435C58.4275 85.9221 57.8605 83.8813 57.6434 83.1515C57.6415 83.1446 57.6415 83.1446 57.6397 83.1376C57.5804 82.9156 57.7469 82.7597 57.9481 82.706C58.1492 82.6523 58.38 82.7096 58.4393 82.9316Z" fill="black"/>
<path d="M50.3603 89.0064C50.3603 89.0064 50.9953 88.9349 51.4798 88.8749C52.1924 88.7866 52.3402 88.7538 52.3236 88.4447C52.3167 88.272 52.2663 87.9237 52.2222 87.5096C52.2045 87.367 52.1974 87.3679 51.321 87.4766C50.9932 87.5172 50.6512 87.5596 50.5238 87.5826C50.1275 87.6534 50.0806 87.2758 50.078 87.2544C50.0524 87.0478 50.1559 86.8324 50.4053 86.8015C50.4124 86.8006 50.4267 86.7988 50.4409 86.797C50.6208 86.7892 50.8925 86.7628 51.1632 86.7292C52.0468 86.6197 52.1171 86.6038 52.0986 86.4541C51.967 85.3925 51.9396 85.2295 51.9103 85.1101C51.8341 84.7867 51.7183 84.7866 50.7136 84.9111C50.2932 84.9632 49.8381 85.0269 49.7036 85.0508C49.6893 85.0526 49.6822 85.0535 49.668 85.0552C49.4186 85.0861 49.2611 84.9248 49.2381 84.7395C49.2143 84.5471 49.333 84.3371 49.6376 84.2849C49.7293 84.2663 50.1417 84.2079 50.555 84.1567C50.9611 84.1063 51.3753 84.0622 51.4688 84.0579C52.1305 84.0265 52.5658 84.2113 52.672 84.8348C52.7234 85.1323 52.7887 85.6596 52.8602 86.2367C52.968 87.106 53.081 88.0759 53.1224 88.5266C53.1788 89.0984 52.8453 89.4436 52.2717 89.5436C52.1443 89.5666 51.7391 89.6241 51.3401 89.6736C50.9339 89.7239 50.5411 89.7653 50.4334 89.7715C50.1609 89.7908 50.0105 89.6285 49.9876 89.4433C49.9637 89.2509 50.0895 89.04 50.3603 89.0064Z" fill="black"/>
<path d="M42.9784 85.1128C43.1061 84.6422 43.4576 84.3932 43.7949 84.4023C44.1179 84.411 44.4344 84.6566 44.5495 85.184C44.7155 85.9498 45.0288 88.1777 45.0915 88.7827C45.1033 88.8764 45.1239 88.9129 45.1454 88.9134C45.1669 88.914 45.1898 88.8644 45.2063 88.7858C45.3172 88.1352 45.7168 86.1062 45.9704 85.2296C46.1135 84.7163 46.472 84.4746 46.8165 84.4839C47.1682 84.4934 47.4987 84.7538 47.5926 85.2663C48.2624 88.9187 48.3482 89.4669 48.3447 89.5961C48.3379 89.8473 48.1119 89.9704 47.8966 89.9646C47.6956 89.9592 47.5047 89.8463 47.4745 89.6372C46.8683 85.4909 46.8551 85.4474 46.7546 85.4447C46.6972 85.4432 46.6448 85.5208 46.6204 85.6278C46.4679 86.2199 46.0216 88.3841 45.8092 89.3336C45.7269 89.7192 45.428 89.8835 45.1337 89.8756C44.8179 89.8671 44.5074 89.6647 44.4519 89.3257C44.3161 88.5032 44.0131 86.4265 43.8849 85.5898C43.8667 85.4672 43.8319 85.4232 43.7961 85.4222C43.6956 85.4195 43.6525 85.4183 42.7302 89.5161C42.6815 89.7231 42.4993 89.8188 42.3199 89.8139C42.0974 89.8079 41.8716 89.6581 41.8778 89.4285C41.8815 89.2921 42.3081 87.5942 42.9784 85.1128Z" fill="black"/>
<path d="M37.5713 85.0315C37.7036 84.2747 38.4833 83.6093 39.629 83.8098C40.7819 84.0114 41.2609 84.7731 41.2003 85.1196C41.1594 85.353 40.9246 85.4869 40.7195 85.451C40.6064 85.4312 40.5031 85.3548 40.4393 85.2197C40.3012 84.9259 39.9917 84.6531 39.4896 84.5653C38.7116 84.4292 38.4491 84.9299 38.4095 85.1562C38.36 85.4391 38.4766 85.7729 38.8085 86.0424C39.0887 86.2736 39.4335 86.5526 39.7787 86.7879C40.3516 87.1797 40.5466 87.7313 40.4613 88.2193C40.3413 88.9053 39.6745 89.4666 38.6985 89.2958C37.7226 89.1251 37.2455 88.5606 37.3036 88.2282C37.3407 88.016 37.5522 87.8489 37.7714 87.8873C37.8775 87.9058 37.9891 87.9764 38.0741 88.1152C38.1825 88.2872 38.3921 88.5061 38.8306 88.5828C39.2832 88.6619 39.6085 88.4273 39.6642 88.109C39.7025 87.8898 39.6102 87.6258 39.3275 87.4087C39.0647 87.2024 38.6163 86.8907 38.3219 86.657C37.6827 86.1443 37.4797 85.5548 37.5713 85.0315Z" fill="black"/>
<path d="M32.6572 82.826L32.6599 82.8194C32.753 82.586 33.001 82.5458 33.201 82.6256C33.4011 82.7055 33.5532 82.9053 33.4601 83.1387L33.4574 83.1454C33.1247 83.9403 32.748 84.8258 32.4047 85.6861C32.1518 86.3195 31.923 86.9317 31.7274 87.4798C31.6289 87.7652 31.2996 87.7188 31.1796 87.6709C30.9862 87.5937 30.8287 87.4071 30.9166 87.1871C30.9192 87.1804 30.9192 87.1804 30.9219 87.1738C31.1561 86.6256 31.413 86.0014 31.6711 85.3546C32.0038 84.5211 32.3432 83.6515 32.6572 82.826Z" fill="black"/>
<path d="M31.1404 82.167L31.137 82.1733C30.7758 82.8188 30.36 83.5816 29.9708 84.3098C29.6324 84.943 29.3172 85.548 29.0697 86.0263C29.0663 86.0326 29.0596 86.0453 29.0562 86.0516C28.8193 86.4949 28.4776 86.5402 28.199 86.3913C27.9647 86.2661 27.7824 85.9977 27.7611 85.7177C27.7006 84.8712 27.699 82.3304 27.6036 81.3514C27.596 81.2741 27.5813 81.2255 27.5623 81.2153C27.5433 81.2052 27.5078 81.2106 27.3758 81.4576C27.0577 82.0528 26.0208 84.0386 25.7285 84.6313C25.6232 84.8437 25.3811 84.8853 25.1785 84.777C24.9948 84.6789 24.8721 84.4667 24.9872 84.2514C24.9906 84.2451 24.9906 84.2451 24.994 84.2388C25.2435 83.8023 25.5781 83.1914 25.9165 82.5582C26.3463 81.754 26.7833 80.9211 27.0651 80.3635C27.0685 80.3571 27.0719 80.3508 27.0719 80.3508C27.2749 79.9709 27.672 79.8981 27.9696 80.0572C28.1722 80.1655 28.3207 80.3751 28.345 80.6648C28.4126 81.6046 28.4393 84.4031 28.4733 85.1621C28.4783 85.2136 28.4786 85.3196 28.5103 85.3365C28.5483 85.3568 28.5821 85.2935 28.7378 85.0022C29.0898 84.3437 30.0691 82.4655 30.4088 81.7841C30.4122 81.7778 30.4122 81.7778 30.4156 81.7715C30.5239 81.5688 30.752 81.5686 30.9356 81.6668C31.1192 81.7649 31.2487 81.9644 31.1404 82.167Z" fill="black"/>
<path d="M25.8303 79.1667L25.8261 79.1726C25.3137 79.8564 23.8045 81.9548 23.3452 82.553C22.9969 83.01 22.5177 83.0355 22.0296 82.7179C21.9207 82.648 21.5907 82.4181 21.2766 82.1909C20.9567 81.9594 20.6467 81.7264 20.5637 81.6574C20.351 81.4859 20.3515 81.2647 20.4609 81.1134C20.5746 80.9564 20.8104 80.8877 21.0314 81.0476C21.0314 81.0476 21.5333 81.4195 21.9172 81.6973C22.4757 82.1013 22.6179 82.1864 22.8163 81.9489C22.929 81.8177 23.1378 81.5168 23.3877 81.1836C23.4718 81.0673 23.466 81.0631 22.7854 80.5707C22.5352 80.3897 22.2793 80.2046 22.1704 80.1347C21.832 79.9164 22.055 79.6081 22.0676 79.5907C22.1897 79.422 22.4122 79.3348 22.6158 79.4821C22.6216 79.4863 22.6333 79.4947 22.6449 79.5032C22.7819 79.62 22.9813 79.7731 23.1907 79.9246C23.8364 80.3917 23.9237 80.4548 24.0163 80.3269C24.2688 79.9778 24.7722 79.2697 25.0415 78.8974C25.1088 78.8043 25.1635 78.7287 25.193 78.688C25.3335 78.506 25.5779 78.5234 25.7408 78.6412C25.8979 78.7548 25.9776 78.9631 25.8303 79.1667Z" fill="black"/>
<path d="M20.6313 74.3161C21.7594 75.4217 21.8265 77.0458 20.6556 78.2405C19.5248 79.3943 17.8596 79.4009 16.7315 78.2952C15.6034 77.1896 15.5713 75.5196 16.7021 74.3658C17.8731 73.1711 19.5032 73.2105 20.6313 74.3161ZM20.1036 74.8545C19.3447 74.1107 18.1716 74.0769 17.3072 74.9588C16.4377 75.8459 16.4902 77.0233 17.2491 77.7671C18.008 78.5109 19.1862 78.5396 20.0556 77.6525C20.92 76.7706 20.8625 75.5983 20.1036 74.8545Z" fill="black"/>
<path d="M14.8667 70.1732L14.8608 70.1774C14.2511 70.5961 13.5404 71.0959 12.8689 71.5764C12.2851 71.9942 11.7346 72.397 11.3008 72.7162C11.295 72.7204 11.2833 72.7287 11.2775 72.7329C10.8688 73.0254 10.5423 72.9147 10.3585 72.6578C10.2039 72.4417 10.1594 72.1204 10.2643 71.8599C10.5849 71.0743 11.7088 68.7955 12.0569 67.8755C12.0844 67.8028 12.0927 67.7527 12.0802 67.7352C12.0676 67.7177 12.0334 67.7069 11.8057 67.8698C11.2568 68.2626 9.44767 69.5838 8.92304 69.9857C8.73454 70.1294 8.49911 70.0595 8.3654 69.8727C8.24423 69.7033 8.22816 69.4588 8.42667 69.3167C8.43251 69.3126 8.43251 69.3126 8.43835 69.3084C8.85542 69.0276 9.42596 68.6281 10.0098 68.2103C10.7514 67.6796 11.5121 67.1264 12.0117 66.7512C12.0175 66.7471 12.0234 66.7429 12.0234 66.7429C12.3737 66.4922 12.7619 66.6028 12.9583 66.8773C13.092 67.0641 13.1323 67.3178 13.0257 67.5883C12.6701 68.4608 11.4545 70.9817 11.1488 71.6772C11.1305 71.7256 11.0839 71.8208 11.1048 71.85C11.1298 71.885 11.1882 71.8433 11.4568 71.6511C12.064 71.2165 13.7739 69.9664 14.3803 69.506C14.3862 69.5018 14.3862 69.5018 14.392 69.4976C14.5788 69.3639 14.7834 69.4647 14.9046 69.634C15.0258 69.8034 15.0535 70.0395 14.8667 70.1732Z" fill="black"/>
<path d="M6.32741 64.7605C6.32741 64.7605 6.61885 65.3292 6.84638 65.7611C7.18098 66.3964 7.26395 66.5231 7.54714 66.3983C7.7063 66.3307 8.01422 66.1604 8.38602 65.9727C8.51307 65.9058 8.50972 65.8994 8.09816 65.118C7.94425 64.8258 7.78364 64.5209 7.71706 64.4099C7.51063 64.0642 7.84731 63.8869 7.86637 63.8768C8.05059 63.7798 8.28869 63.8005 8.4058 64.0228C8.40915 64.0291 8.41584 64.0418 8.42253 64.0546C8.49347 64.2201 8.61427 64.4648 8.74142 64.7062C9.15632 65.4939 9.19613 65.5541 9.32953 65.4838C10.2761 64.9853 10.4188 64.902 10.5201 64.8324C10.7956 64.6467 10.7548 64.5384 10.283 63.6427C10.0856 63.2679 9.86508 62.8646 9.79516 62.7473C9.78846 62.7346 9.78512 62.7282 9.77843 62.7155C9.66132 62.4932 9.75656 62.2888 9.92172 62.2018C10.0932 62.1115 10.3317 62.1482 10.4883 62.4147C10.5381 62.4939 10.7385 62.859 10.9326 63.2275C11.1233 63.5896 11.311 63.9613 11.3482 64.0473C11.6115 64.6551 11.5926 65.1276 11.047 65.4475C10.7869 65.6007 10.3168 65.8483 9.80224 66.1194C9.02723 66.5276 8.15994 66.9763 7.75304 67.1744C7.23815 67.4293 6.79735 67.2395 6.50092 66.7384C6.43434 66.6274 6.23727 66.2686 6.04989 65.9129C5.85917 65.5508 5.68149 65.1981 5.63766 65.0994C5.52321 64.8513 5.6218 64.6533 5.78696 64.5663C5.95848 64.476 6.20027 64.5191 6.32741 64.7605Z" fill="black"/>
<path d="M7.43735 56.7152C7.92246 56.666 8.2808 56.9051 8.39297 57.2234C8.50036 57.5281 8.3843 57.9116 7.93294 58.2077C7.2772 58.6367 5.30889 59.7263 4.76634 60.0013C4.68308 60.0459 4.65638 60.0781 4.66354 60.0984C4.6707 60.1187 4.72526 60.1223 4.80452 60.1096C5.45176 59.9805 7.48944 59.6277 8.39872 59.5509C8.92923 59.5009 9.28318 59.7492 9.39773 60.0742C9.51468 60.406 9.38985 60.8078 8.94486 61.0788C5.77382 63.011 5.2926 63.2872 5.17071 63.3302C4.9337 63.4137 4.73783 63.2467 4.66623 63.0436C4.59941 62.854 4.63654 62.6354 4.82098 62.5323C8.47597 60.4828 8.51182 60.455 8.47841 60.3602C8.45932 60.306 8.36813 60.2848 8.25939 60.3003C7.65201 60.3698 5.47135 60.7272 4.50868 60.8686C4.11915 60.9298 3.85878 60.7094 3.76093 60.4318C3.65591 60.1338 3.73373 59.7714 4.03052 59.5983C4.74997 59.1773 6.58085 58.1513 7.31623 57.7323C7.42419 57.6714 7.45288 57.6232 7.44095 57.5894C7.40754 57.4946 7.39322 57.4539 3.23665 58.0587C3.02596 58.0873 2.87149 57.9514 2.81183 57.7821C2.73784 57.5722 2.7969 57.3078 3.01359 57.2314C3.14225 57.186 4.88037 56.9769 7.43735 56.7152Z" fill="black"/>
<path d="M5.58621 51.559C6.34111 51.4164 7.23842 51.9119 7.45428 53.0548C7.67147 54.2048 7.12727 54.9213 6.78157 54.9866C6.54875 55.0306 6.34079 54.858 6.30215 54.6534C6.28083 54.5405 6.31595 54.417 6.4199 54.3096C6.64629 54.0769 6.79266 53.6912 6.69805 53.1903C6.55148 52.4143 5.99037 52.3449 5.76461 52.3875C5.4824 52.4408 5.21101 52.6674 5.0757 53.0729C4.95795 53.4167 4.81825 53.8376 4.71955 54.2435C4.5546 54.9177 4.10698 55.2945 3.62018 55.3864C2.93583 55.5157 2.17578 55.0893 1.9919 54.1157C1.80802 53.1421 2.1684 52.4968 2.49999 52.4342C2.71164 52.3942 2.94249 52.5332 2.9838 52.752C3.00379 52.8578 2.97705 52.987 2.8771 53.1155C2.75426 53.2776 2.62319 53.5507 2.7058 53.9882C2.79107 54.4397 3.12524 54.6615 3.44272 54.6016C3.66143 54.5603 3.87599 54.3809 3.97963 54.0398C4.08021 53.7213 4.21404 53.1918 4.32912 52.834C4.58391 52.0552 5.06413 51.6576 5.58621 51.559Z" fill="black"/>
<path d="M7.25572 45.1518L7.2629 45.1519C7.51418 45.1535 7.64201 45.3697 7.6406 45.5851C7.6392 45.8005 7.50855 46.0151 7.25727 46.0134L7.25009 46.0134C6.38862 45.9934 5.42668 45.9656 4.5005 45.9595C3.81843 45.9551 3.16499 45.9651 2.58329 45.9829C2.28165 45.9953 2.20479 45.6717 2.20563 45.5424C2.20699 45.3342 2.32328 45.1196 2.56021 45.1211C2.56739 45.1212 2.56739 45.1212 2.57457 45.1212C3.17038 45.1395 3.84523 45.1511 4.54166 45.1556C5.43912 45.1615 6.37252 45.1604 7.25572 45.1518Z" fill="black"/>
<path d="M7.30591 43.5117L7.29878 43.5108C6.56607 43.4097 5.70417 43.3005 4.88421 43.2035C4.1712 43.1191 3.493 43.0461 2.9574 42.9899C2.95027 42.9891 2.93601 42.9874 2.92887 42.9866C2.42977 42.9275 2.26303 42.6258 2.30014 42.3121C2.33136 42.0483 2.51484 41.7808 2.76784 41.6589C3.534 41.2941 5.89948 40.3665 6.77642 39.9208C6.84565 39.8856 6.88552 39.8542 6.88805 39.8328C6.89058 39.8114 6.87257 39.7804 6.59449 39.7475C5.92427 39.6682 3.69714 39.4264 3.03864 39.3701C2.80251 39.3494 2.67555 39.1392 2.70255 38.911C2.72701 38.7043 2.87982 38.5127 3.12224 38.5414C3.12937 38.5422 3.12937 38.5422 3.1365 38.543C3.63392 38.6164 4.3247 38.7053 5.03771 38.7897C5.94323 38.8968 6.87812 39.0002 7.50012 39.0593C7.50725 39.0602 7.51438 39.061 7.51438 39.061C7.94219 39.1116 8.15462 39.4549 8.11497 39.79C8.08798 40.0182 7.9469 40.2328 7.68592 40.361C6.83543 40.7665 4.23918 41.8113 3.54478 42.1195C3.49863 42.143 3.40003 42.1819 3.39581 42.2176C3.39075 42.2604 3.46205 42.2688 3.79004 42.3076C4.53157 42.3954 6.63748 42.6228 7.3958 42.6909C7.40293 42.6917 7.40293 42.6917 7.41006 42.6926C7.63822 42.7195 7.72155 42.9318 7.69709 43.1386C7.67262 43.3454 7.53408 43.5387 7.30591 43.5117Z" fill="black"/>
<path d="M8.14395 37.507L8.137 37.5052C7.31368 37.2764 4.81023 36.6332 4.086 36.4227C3.53369 36.2643 3.33574 35.8271 3.45423 35.257C3.47978 35.1302 3.57397 34.7392 3.67148 34.364C3.77081 33.9818 3.87528 33.6083 3.90932 33.5059C3.99184 33.2454 4.19807 33.1655 4.37874 33.2125C4.56637 33.2612 4.71607 33.4559 4.64744 33.72C4.64744 33.72 4.48338 34.3227 4.36419 34.7814C4.19082 35.4485 4.16318 35.6119 4.45657 35.7104C4.61974 35.7677 4.97594 35.8528 5.37718 35.9645C5.51616 36.0006 5.51796 35.9937 5.72926 35.1806C5.80691 34.8818 5.88637 34.5761 5.91193 34.4492C5.99221 34.0546 6.36051 34.1503 6.38136 34.1557C6.58288 34.2081 6.74494 34.3838 6.68174 34.627C6.67993 34.6339 6.67632 34.6478 6.67271 34.6617C6.61366 34.8318 6.5435 35.0732 6.47849 35.3234C6.27804 36.0948 6.25095 36.199 6.40382 36.2387C6.82077 36.3471 7.6634 36.5586 8.10814 36.6742C8.21932 36.7031 8.30966 36.7266 8.3583 36.7392C8.57886 36.804 8.65157 37.038 8.60101 37.2326C8.55225 37.4202 8.38716 37.5702 8.14395 37.507Z" fill="black"/>
<path d="M10.7488 30.9252C10.1287 32.378 8.64006 33.0306 7.10148 32.3739C5.61572 31.7396 5.00447 30.1906 5.62461 28.7379C6.24474 27.2851 7.78901 26.6484 9.27476 27.2827C10.8133 27.9394 11.369 29.4725 10.7488 30.9252ZM10.0555 30.6293C10.4726 29.652 10.0779 28.5467 8.94215 28.0619C7.79976 27.5742 6.72193 28.0509 6.30475 29.0282C5.88757 30.0055 6.28889 31.1136 7.43128 31.6013C8.56706 32.0861 9.63828 31.6066 10.0555 30.6293Z" fill="black"/>
<path d="M14.5495 23.9453L14.5438 23.941C13.9624 23.4837 13.2737 22.9542 12.6149 22.4563C12.0421 22.0235 11.4936 21.618 11.0597 21.299C11.0539 21.2947 11.0425 21.286 11.0368 21.2817C10.6358 20.9787 10.6442 20.6341 10.8347 20.382C10.9949 20.1701 11.2883 20.0319 11.5682 20.0544C12.4138 20.1265 14.9238 20.5204 15.9058 20.5786C15.9834 20.5832 16.0337 20.5762 16.0466 20.559C16.0596 20.5418 16.0598 20.5059 15.8364 20.3371C15.2979 19.9302 13.4977 18.5968 12.9578 18.2157C12.7644 18.0786 12.761 17.833 12.8995 17.6497C13.0251 17.4836 13.2537 17.3954 13.4485 17.5426C13.4542 17.5469 13.4542 17.5469 13.4599 17.5513C13.8522 17.8657 14.4035 18.2913 14.9763 18.7242C15.7038 19.274 16.4585 19.8353 16.9655 20.2005C16.9713 20.2048 16.977 20.2091 16.977 20.2091C17.3207 20.4689 17.3307 20.8724 17.1272 21.1416C16.9887 21.3249 16.7585 21.439 16.4686 21.4178C15.5297 21.3383 12.7612 20.929 12.0062 20.8444C11.9545 20.8413 11.8497 20.8252 11.8281 20.8538C11.8021 20.8882 11.8594 20.9315 12.1229 21.1306C12.7186 21.5808 14.4214 22.8406 15.0416 23.2822C15.0473 23.2866 15.0473 23.2866 15.053 23.2909C15.2363 23.4294 15.2011 23.6547 15.0755 23.8209C14.95 23.987 14.7328 24.0838 14.5495 23.9453Z" fill="black"/>
<path d="M17.1175 14.2163C17.1175 14.2163 16.6623 14.6647 16.3183 15.0112C15.8124 15.5208 15.7164 15.6379 15.9203 15.8707C16.0325 16.0023 16.2872 16.245 16.5777 16.5435C16.6796 16.6447 16.6847 16.6396 17.3068 16.0129C17.5395 15.7785 17.7823 15.5339 17.8683 15.4371C18.1363 15.1366 18.4063 15.4047 18.4216 15.4199C18.5694 15.5666 18.621 15.7999 18.444 15.9783C18.4389 15.9834 18.4288 15.9936 18.4187 16.0038C18.282 16.121 18.0847 16.3096 17.8925 16.5032C17.2652 17.135 17.2197 17.191 17.3267 17.2973C18.0859 18.051 18.2082 18.1622 18.3049 18.238C18.5646 18.4452 18.6557 18.3738 19.369 17.6554C19.6674 17.3548 19.9861 17.0236 20.0771 16.9217C20.0872 16.9115 20.0923 16.9064 20.1024 16.8963C20.2794 16.7179 20.5029 16.7476 20.6354 16.8791C20.773 17.0157 20.8094 17.2542 20.602 17.4834C20.5414 17.5547 20.2531 17.8553 19.9597 18.1508C19.6714 18.4412 19.3729 18.7317 19.302 18.7929C18.801 19.2262 18.3445 19.3497 17.8759 18.925C17.6518 18.7227 17.2747 18.3484 16.862 17.9387C16.2404 17.3215 15.5525 16.6285 15.2416 16.2996C14.8441 15.8847 14.8931 15.4073 15.2824 14.9744C15.3684 14.8776 15.6516 14.5821 15.9349 14.2968C16.2232 14.0063 16.5066 13.7312 16.5875 13.6598C16.7899 13.4763 17.0084 13.511 17.1408 13.6425C17.2784 13.7791 17.3098 14.0227 17.1175 14.2163Z" fill="black"/>
<path d="M25.2752 12.7381C25.466 13.1869 25.3439 13.6 25.0732 13.8015C24.814 13.9944 24.4133 13.9972 23.9967 13.6539C23.3926 13.1549 21.7684 11.5981 21.345 11.1614C21.2777 11.0951 21.239 11.0792 21.2217 11.092C21.2044 11.1049 21.2172 11.1581 21.2528 11.23C21.568 11.8099 22.509 13.6514 22.852 14.497C23.057 14.9888 22.9248 15.4005 22.6484 15.6062C22.3662 15.8163 21.9454 15.8162 21.5546 15.4716C18.7692 13.0159 18.3628 12.6382 18.2856 12.5345C18.1356 12.3329 18.237 12.0964 18.4097 11.9678C18.571 11.8477 18.7908 11.8184 18.9439 11.964C21.9849 14.847 22.0221 14.873 22.1027 14.813C22.1488 14.7787 22.142 14.6854 22.0949 14.5861C21.8486 14.0266 20.8607 12.05 20.4403 11.1725C20.2664 10.8186 20.3996 10.5046 20.6358 10.3288C20.8892 10.1402 21.2583 10.1071 21.5117 10.3392C22.1271 10.9015 23.6497 12.3459 24.2679 12.924C24.3581 13.0091 24.4126 13.0222 24.4414 13.0007C24.522 12.9407 24.5566 12.915 22.7467 9.12459C22.657 8.93184 22.7409 8.74403 22.8849 8.63686C23.0635 8.50397 23.3335 8.48198 23.4707 8.66629C23.5522 8.77572 24.2672 10.3737 25.2752 12.7381Z" fill="black"/>
<path d="M29.4711 9.50579C29.8347 10.1825 29.6329 11.1875 28.6083 11.738C27.5774 12.2919 26.7301 11.9891 26.5636 11.6792C26.4514 11.4705 26.5533 11.2201 26.7367 11.1216C26.8379 11.0672 26.9663 11.0635 27.0999 11.1302C27.3901 11.2759 27.802 11.2991 28.251 11.0578C28.9468 10.684 28.8437 10.1281 28.735 9.92574C28.599 9.67275 28.3011 9.48234 27.8737 9.47562C27.5105 9.46701 27.067 9.46077 26.6502 9.48907C25.9577 9.53511 25.4634 9.22198 25.229 8.78557C24.8994 8.17206 25.0767 7.3188 25.9495 6.84987C26.8223 6.38093 27.5462 6.52992 27.706 6.82718C27.8079 7.01693 27.7449 7.27897 27.5489 7.38431C27.454 7.43528 27.3227 7.44878 27.17 7.39223C26.9785 7.32397 26.6785 7.28139 26.2864 7.49207C25.8816 7.70955 25.7708 8.09506 25.9238 8.37968C26.0291 8.57575 26.2648 8.72623 26.6213 8.72218C26.9553 8.722 27.5005 8.68993 27.8764 8.69174C28.6957 8.69979 29.2196 9.03776 29.4711 9.50579Z" fill="black"/>
<path d="M35.865 7.88806L35.8668 7.895C35.9319 8.13771 35.7574 8.31834 35.5493 8.37414C35.3413 8.42995 35.0998 8.36093 35.0347 8.11821L35.0328 8.11128C34.8235 7.27539 34.595 6.34056 34.3551 5.44599C34.1784 4.78719 33.9952 4.15985 33.8237 3.60372C33.7318 3.31619 34.0234 3.1562 34.1482 3.12272C34.3493 3.06877 34.5871 3.12393 34.6485 3.35277C34.6503 3.35971 34.6503 3.35971 34.6522 3.36664C34.7927 3.94594 34.9606 4.59966 35.1411 5.27233C35.3736 6.13917 35.6223 7.03882 35.865 7.88806Z" fill="black"/>
<path d="M37.4081 7.5089L37.407 7.5018C37.3098 6.76855 37.186 5.90862 37.0617 5.09236C36.9535 4.38257 36.8437 3.70935 36.7554 3.17809C36.7544 3.17099 36.7522 3.1568 36.7511 3.1497C36.6754 2.65285 36.9219 2.41192 37.2343 2.36434C37.4969 2.32432 37.8035 2.43011 37.9883 2.64163C38.5436 3.28329 40.0664 5.31722 40.7291 6.04418C40.7814 6.10158 40.8223 6.13166 40.8436 6.12841C40.8649 6.12517 40.8901 6.09955 40.8479 5.82273C40.7462 5.15553 40.3875 2.94422 40.2667 2.29446C40.2239 2.06131 40.3928 1.88305 40.62 1.84845C40.8258 1.81708 41.0511 1.91348 41.0879 2.15481C41.089 2.16191 41.089 2.16191 41.09 2.169C41.1516 2.66802 41.2494 3.3576 41.3575 4.06739C41.4949 4.96882 41.6436 5.89757 41.7519 6.51292C41.753 6.52002 41.7541 6.52712 41.7541 6.52712C41.819 6.95299 41.5445 7.24901 41.2109 7.29984C40.9838 7.33445 40.7394 7.25549 40.5464 7.03796C39.9295 6.3258 38.2323 4.10056 37.7506 3.51305C37.7158 3.47479 37.652 3.39009 37.6165 3.3955C37.5739 3.40198 37.5847 3.47296 37.6345 3.79947C37.747 4.53765 38.0873 6.62829 38.2233 7.37742C38.2243 7.38452 38.2243 7.38452 38.2254 7.39162C38.26 7.61875 38.0775 7.7555 37.8717 7.78687C37.6658 7.81823 37.4427 7.73603 37.4081 7.5089Z" fill="black"/>
<path d="M43.6341 6.70389L43.634 6.69671C43.6377 5.84219 43.5983 3.25774 43.6104 2.50365C43.6176 1.92913 43.9871 1.62294 44.5683 1.58696C44.6974 1.57816 45.0994 1.56596 45.4871 1.56112C45.8819 1.55619 46.2697 1.55852 46.3775 1.56436C46.6505 1.57531 46.7819 1.75318 46.7843 1.93984C46.7867 2.13368 46.6383 2.3294 46.3655 2.33281C46.3655 2.33281 45.7408 2.33343 45.267 2.33935C44.5778 2.34796 44.4129 2.36438 44.3952 2.67336C44.383 2.84584 44.3947 3.21189 44.3927 3.62838C44.3945 3.77197 44.4017 3.77188 45.2417 3.76138C45.5504 3.75753 45.8663 3.75358 45.9954 3.74479C46.3972 3.71823 46.4019 4.09873 46.4022 4.12027C46.4048 4.32847 46.2781 4.5311 46.0268 4.53424C46.0196 4.53433 46.0053 4.53451 45.9909 4.53469C45.8113 4.52257 45.5599 4.51853 45.3014 4.52176C44.5045 4.53171 44.3969 4.53306 44.3988 4.691C44.4042 5.12176 44.4222 5.99036 44.428 6.44984C44.4294 6.5647 44.4306 6.65803 44.4312 6.70829C44.4269 6.93812 44.2203 7.06994 44.0193 7.07245C43.8255 7.07488 43.6373 6.95516 43.6341 6.70389Z" fill="black"/>
<path d="M50.6187 7.4653C49.0533 7.25457 48.0277 5.9936 48.2509 4.33565C48.4664 2.73463 49.7966 1.73283 51.362 1.94356C52.9275 2.15428 53.9525 3.47314 53.737 5.07416C53.5138 6.73211 52.1842 7.67603 50.6187 7.4653ZM50.7193 6.71816C51.7724 6.85992 52.7326 6.18503 52.8974 4.96114C53.0631 3.73013 52.3165 2.81823 51.2634 2.67647C50.2103 2.5347 49.2491 3.21671 49.0834 4.44772C48.9186 5.67161 49.6662 6.5764 50.7193 6.71816Z" fill="black"/>
<path d="M57.6834 8.88661L57.6856 8.87979C57.9302 8.18173 58.2083 7.35866 58.4661 6.57427C58.6903 5.89219 58.8965 5.24198 59.0578 4.72817C59.0601 4.72135 59.0646 4.70771 59.0668 4.70089C59.2238 4.22344 59.5525 4.1199 59.8527 4.21855C60.105 4.30151 60.3308 4.53443 60.4 4.8066C60.6055 5.62992 61.0451 8.13244 61.3078 9.0804C61.3286 9.15524 61.3515 9.20056 61.3719 9.20728C61.3924 9.21401 61.4264 9.20252 61.5139 8.93651C61.7246 8.29535 62.4037 6.16054 62.5895 5.52631C62.6567 5.29898 62.8879 5.21628 63.1062 5.28802C63.304 5.35305 63.4614 5.54084 63.3852 5.77275C63.383 5.77957 63.383 5.77957 63.3807 5.78639C63.2101 6.25936 62.9858 6.91873 62.7616 7.60081C62.4769 8.46705 62.19 9.36281 62.0086 9.96071C62.0063 9.96753 62.0041 9.97435 62.0041 9.97435C61.8695 10.3836 61.491 10.5237 61.1704 10.4183C60.9521 10.3465 60.7697 10.1657 60.6959 9.88443C60.4673 8.97038 59.9586 6.2184 59.7943 5.47664C59.7805 5.42675 59.7619 5.32238 59.7278 5.31117C59.6869 5.29772 59.6644 5.36593 59.5613 5.67968C59.3281 6.38904 58.6872 8.4079 58.47 9.13763C58.4677 9.14445 58.4677 9.14445 58.4655 9.15127C58.3938 9.36953 58.1691 9.40907 57.9713 9.34405C57.7735 9.27903 57.6116 9.10487 57.6834 8.88661Z" fill="black"/>
<path d="M67.6165 8.12856C67.6165 8.12856 67.0449 7.84285 66.6057 7.62949C65.9599 7.31572 65.818 7.26275 65.6637 7.53103C65.5755 7.67974 65.4282 7.99932 65.2398 8.37074C65.177 8.4999 65.1835 8.50304 65.9778 8.88897C66.2749 9.0333 66.5849 9.18391 66.7042 9.23393C67.0753 9.39027 66.909 9.73254 66.8996 9.75191C66.8086 9.93919 66.6045 10.0635 66.3785 9.95372C66.372 9.95058 66.3591 9.94431 66.3462 9.93803C66.191 9.84667 65.9488 9.72098 65.7034 9.60175C64.9026 9.21269 64.8348 9.18777 64.769 9.32338C64.3014 10.2856 64.2357 10.4373 64.1953 10.5533C64.0833 10.8661 64.1803 10.9292 65.0909 11.3716C65.4719 11.5568 65.8884 11.7511 66.0142 11.8043C66.0271 11.8105 66.0336 11.8137 66.0465 11.8199C66.2725 11.9298 66.3168 12.1508 66.2352 12.3187C66.1505 12.4931 65.9366 12.6047 65.6526 12.4827C65.5655 12.4484 65.1878 12.2729 64.8133 12.0909C64.4452 11.912 64.0738 11.7236 63.9929 11.6763C63.4208 11.3425 63.1562 10.9505 63.4065 10.3697C63.5254 10.0921 63.7576 9.61426 64.0117 9.09116C64.3945 8.30329 64.8277 7.42815 65.0383 7.02757C65.3022 6.51721 65.7698 6.40914 66.3054 6.63746C66.4248 6.68748 66.796 6.85986 67.1577 7.03557C67.5258 7.21442 67.8778 7.39345 67.9716 7.44697C68.2107 7.57912 68.2485 7.79704 68.1669 7.96495C68.0822 8.13931 67.8619 8.24779 67.6165 8.12856Z" fill="black"/>
<path d="M71.723 15.4238C71.3596 15.7488 70.9291 15.7661 70.6512 15.5747C70.3852 15.3914 70.2536 15.0129 70.4445 14.508C70.7226 13.7754 71.6739 11.7367 71.951 11.1952C71.9922 11.1102 71.9948 11.0684 71.977 11.0562C71.9593 11.044 71.9131 11.0731 71.8564 11.13C71.4089 11.6151 69.9682 13.0987 69.2779 13.6955C68.8782 14.0479 68.4459 14.0552 68.1621 13.8597C67.8724 13.6601 67.7371 13.2617 67.9377 12.7808C69.3663 9.35329 69.5931 8.84692 69.6664 8.7405C69.809 8.53357 70.0656 8.55343 70.243 8.67563C70.4085 8.78969 70.5071 8.98837 70.4185 9.18019C68.6674 12.9872 68.6548 13.0308 68.7376 13.0878C68.7849 13.1204 68.8711 13.0839 68.9499 13.0074C69.4003 12.5941 70.9539 11.0226 71.6494 10.3422C71.9285 10.0637 72.2687 10.0888 72.5111 10.2558C72.7712 10.435 72.9214 10.7739 72.7831 11.0884C72.4488 11.8521 71.5712 13.7585 71.2229 14.5299C71.1714 14.6426 71.1765 14.6985 71.206 14.7188C71.2888 14.7759 71.3243 14.8003 74.3306 11.8669C74.4842 11.7199 74.6891 11.739 74.8369 11.8408C75.0202 11.9671 75.1279 12.2157 74.9975 12.4049C74.9201 12.5172 73.6373 13.7085 71.723 15.4238Z" fill="black"/>
<path d="M76.117 18.3457C75.5939 18.9083 74.5776 19.0417 73.7258 18.2497C72.8688 17.4528 72.8818 16.5531 73.1214 16.2955C73.2827 16.1219 73.5525 16.1375 73.705 16.2793C73.7891 16.3575 73.8341 16.4778 73.8141 16.6259C73.7699 16.9476 73.8809 17.3449 74.2542 17.692C74.8326 18.2298 75.3255 17.9528 75.4819 17.7845C75.6775 17.5742 75.7615 17.2308 75.6299 16.8241C75.5208 16.4775 75.3835 16.0557 75.2222 15.6704C74.955 15.0299 75.0918 14.461 75.4292 14.0982C75.9034 13.5881 76.7683 13.4805 77.4939 14.1552C78.2195 14.8299 78.3122 15.5632 78.0824 15.8103C77.9357 15.968 77.6674 15.993 77.5044 15.8415C77.4255 15.7681 77.3703 15.6482 77.3746 15.4855C77.3773 15.2822 77.3208 14.9845 76.9948 14.6814C76.6583 14.3685 76.2577 14.3881 76.0377 14.6247C75.8861 14.7877 75.8198 15.0594 75.9387 15.3954C76.0467 15.7116 76.253 16.2172 76.3727 16.5735C76.6296 17.3516 76.4788 17.9566 76.117 18.3457Z" fill="black"/>
<path d="M79.1274 25.4077L79.1214 25.4116C78.9104 25.5481 78.6849 25.4374 78.5679 25.2565C78.451 25.0756 78.4425 24.8246 78.6535 24.6881L78.6596 24.6842C79.3909 24.2285 80.2105 23.7241 80.9882 23.2212C81.561 22.8509 82.1019 22.484 82.5785 22.1502C82.824 21.9744 83.0657 22.2028 83.1359 22.3113C83.2489 22.4861 83.2694 22.7294 83.0705 22.8581C83.0644 22.862 83.0644 22.862 83.0584 22.8659C82.5502 23.1774 81.9796 23.5378 81.3947 23.916C80.6411 24.4033 79.8612 24.9162 79.1274 25.4077Z" fill="black"/>
<path d="M79.9725 26.7847L79.979 26.7815C80.6469 26.4638 81.4273 26.0819 82.1659 25.7128C82.8081 25.3919 83.4151 25.0806 83.8936 24.8335C83.9 24.8303 83.9128 24.8239 83.9193 24.8206C84.3688 24.596 84.6738 24.7566 84.815 25.0392C84.9338 25.2768 84.9273 25.6011 84.7827 25.8419C84.3427 26.5675 82.8748 28.6414 82.3865 29.4954C82.3479 29.5628 82.3319 29.6109 82.3415 29.6302C82.3511 29.6495 82.3832 29.6655 82.6337 29.5404C83.2374 29.2387 85.2317 28.2181 85.8129 27.9036C86.0217 27.7913 86.2432 27.8973 86.3459 28.1028C86.439 28.2891 86.4164 28.5331 86.1981 28.6422C86.1916 28.6454 86.1916 28.6454 86.1852 28.6486C85.7292 28.8604 85.103 29.1653 84.4607 29.4862C83.6451 29.8938 82.8069 30.3207 82.2546 30.6127C82.2481 30.6159 82.2417 30.6191 82.2417 30.6191C81.8564 30.8117 81.4904 30.6414 81.3395 30.3396C81.2368 30.134 81.2369 29.8772 81.3846 29.6268C81.8729 28.8209 83.4693 26.5223 83.8805 25.8834C83.9062 25.8385 83.9672 25.7518 83.9511 25.7197C83.9319 25.6812 83.8677 25.7133 83.5722 25.8609C82.9043 26.1947 81.0192 27.1607 80.348 27.5201C80.3416 27.5234 80.3416 27.5234 80.3352 27.5266C80.1297 27.6293 79.9435 27.4976 79.8504 27.3113C79.7573 27.1251 79.767 26.8874 79.9725 26.7847Z" fill="black"/>
<path d="M82.6115 32.3802L82.6183 32.3779C83.4325 32.1186 85.8795 31.2862 86.6008 31.0658C87.1497 30.8959 87.5547 31.1534 87.7677 31.6953C87.8158 31.8155 87.951 32.1942 88.0749 32.5616C88.201 32.9358 88.318 33.3055 88.3456 33.4098C88.4192 33.673 88.2904 33.8528 88.1135 33.9124C87.9298 33.9743 87.6979 33.8934 87.6108 33.6348C87.6108 33.6348 87.418 33.0406 87.2667 32.5916C87.0465 31.9384 86.9801 31.7865 86.6807 31.8647C86.5128 31.9062 86.1681 32.0299 85.7712 32.1561C85.6352 32.202 85.6375 32.2088 85.9058 33.0049C86.0044 33.2974 86.1053 33.5968 86.1534 33.7169C86.3022 34.0911 85.9416 34.2126 85.9212 34.2195C85.7239 34.286 85.4921 34.2278 85.4119 33.9896C85.4096 33.9828 85.405 33.9692 85.4004 33.9556C85.3567 33.7809 85.2832 33.5405 85.2006 33.2956C84.9461 32.5404 84.9117 32.4383 84.762 32.4888C84.3538 32.6264 83.5328 32.9107 83.0974 33.0575C82.9885 33.0942 82.9001 33.124 82.8525 33.14C82.6324 33.2066 82.4435 33.0506 82.3792 32.8601C82.3173 32.6764 82.3734 32.4605 82.6115 32.3802Z" fill="black"/>
<path d="M84.0215 39.2796C83.7434 37.7247 84.6302 36.3626 86.277 36.0681C87.8672 35.7836 89.2279 36.7437 89.506 38.2986C89.7841 39.8535 88.8419 41.2328 87.2517 41.5172C85.6049 41.8118 84.2996 40.8345 84.0215 39.2796ZM84.7636 39.1469C84.9507 40.1929 85.8869 40.9007 87.1025 40.6833C88.3252 40.4645 88.9651 39.4748 88.778 38.4288C88.5909 37.3828 87.6476 36.6763 86.4249 36.895C85.2093 37.1124 84.5765 38.1009 84.7636 39.1469Z" fill="black"/>
</svg>
