<svg width="196" height="222" viewBox="0 0 196 222" fill="none" xmlns="http://www.w3.org/2000/svg">
<mask id="mask0_17_261" style="mask-type:alpha" maskUnits="userSpaceOnUse" x="0" y="0" width="196" height="222">
<rect x="0.264709" y="0.649063" width="195.471" height="221.351" fill="#D9D9D9"/>
</mask>
<g mask="url(#mask0_17_261)">
<path d="M98.1297 174.329C98.055 174.329 97.9615 174.329 97.8868 174.329C50.256 174.385 2.34483 188.343 2.34483 221.567V229.172H5.14774H7.95065H187.842H190.645H193.447V221.567C193.429 190.249 145.966 174.329 98.1297 174.329Z" fill="url(#paint0_linear_17_261)"/>
<path d="M97.8878 165.729H80.9209V184.378C80.9209 192.805 87.8347 199.644 96.3556 199.644H99.4388C107.96 199.644 114.873 192.805 114.873 184.378V165.729H97.8878Z" fill="#EDC391"/>
<path d="M148.958 91.6053H135.186H60.5913H46.8196C35.8135 91.6053 26.8068 101.21 26.8068 112.926C26.8068 124.642 35.8135 134.247 46.8196 134.247H60.5913H135.167H148.939C159.945 134.247 168.952 124.642 168.952 112.926C168.952 101.21 159.964 91.6053 148.958 91.6053Z" fill="#EDC391"/>
<path d="M97.8878 16.1619C65.374 16.1619 35.2521 50.9367 35.2521 100.978C35.2521 150.758 66.2896 175.367 97.8878 175.367C129.486 175.367 160.524 150.758 160.524 100.978C160.524 50.9367 130.402 16.1619 97.8878 16.1619Z" fill="#F9DDBD"/>
<path d="M52.7008 92.1803C58.643 83.7528 72.6202 83.4726 79.6275 90.648C80.8421 91.9 82.1314 93.5257 81.2158 95.3195C80.2068 97.3189 78.1326 97.0013 76.4322 96.3099C71.8914 94.4787 67.2012 93.6565 62.3242 94.6468C60.2126 95.0766 58.4001 95.9549 56.4007 96.6649C53.7099 97.5805 50.963 94.7776 52.7008 92.1803Z" fill="#454140"/>
<path d="M139.497 96.6564C135.33 94.8439 131.107 93.7974 126.51 94.3206C124.417 94.5636 122.362 95.1055 120.418 95.8716C118.867 96.4882 117.204 97.4786 115.597 96.3761C111.019 93.2182 119.129 88.0795 121.521 87.0518C126.678 84.8094 132.826 85.0337 137.815 87.631C139.796 88.6588 141.945 90.1536 143.122 92.1157C144.598 94.5822 142.393 97.8336 139.497 96.6564Z" fill="#454140"/>
<path d="M66.8103 116.787C71.8981 116.787 76.0226 112.521 76.0226 107.257C76.0226 101.994 71.8981 97.7274 66.8103 97.7274C61.7225 97.7274 57.5981 101.994 57.5981 107.257C57.5981 112.521 61.7225 116.787 66.8103 116.787Z" fill="#312D2D"/>
<path d="M128.96 116.787C134.048 116.787 138.173 112.521 138.173 107.257C138.173 101.994 134.048 97.7274 128.96 97.7274C123.873 97.7274 119.748 101.994 119.748 107.257C119.748 112.521 123.873 116.787 128.96 116.787Z" fill="#312D2D"/>
<path d="M105.102 124.539C104.896 124.464 104.709 124.408 104.504 124.39H91.2928C91.0873 124.408 90.8817 124.464 90.6949 124.539C89.499 125.025 88.845 126.258 89.4055 127.585C89.9661 128.912 92.6009 132.611 97.9077 132.611C103.215 132.611 105.849 128.893 106.41 127.585C106.952 126.258 106.298 125.025 105.102 124.539Z" fill="#DBA689"/>
<path d="M113.622 139.654C107.661 143.186 88.153 143.186 82.2109 139.654C78.7913 137.618 75.297 140.738 76.7172 143.84C78.1186 146.886 88.7697 153.968 97.9632 153.968C107.157 153.968 117.677 146.886 119.079 143.84C120.48 140.738 117.042 137.618 113.622 139.654Z" fill="#444444"/>
<path d="M97.8876 4.89221C97.8689 4.89221 97.8689 4.89221 97.8503 4.89221C97.8316 4.89221 97.8316 4.89221 97.8129 4.89221C12.922 5.34068 30.3187 102.321 30.3187 102.321C30.3187 102.321 34.1307 112.318 35.8685 116.728C36.1114 117.364 37.0457 117.289 37.1952 116.635C39.0078 108.525 45.5292 79.7673 48.818 71.0409C50.7613 65.8836 56.1055 62.8938 61.5058 63.8842C69.8211 65.3977 83.0883 67.2663 97.7008 67.2663C97.7568 67.2663 97.8129 67.2663 97.8503 67.2663C97.9063 67.2663 97.9624 67.2663 97.9997 67.2663C112.631 67.2663 125.879 65.3977 134.195 63.8842C139.614 62.8938 144.958 65.9023 146.883 71.0409C150.153 79.7486 156.637 108.338 158.468 116.56C158.617 117.233 159.552 117.289 159.795 116.654L165.363 102.321C165.4 102.321 182.797 5.34068 97.8876 4.89221Z" fill="#FFE13B"/>
<path d="M165.399 102.321C165.399 102.321 182.796 5.34068 97.8866 4.89221C97.8679 4.89221 97.8679 4.89221 97.8493 4.89221C97.8306 4.89221 97.8306 4.89221 97.8119 4.89221C96.4852 4.89221 95.1958 4.92958 93.9252 4.98564C91.4026 5.09776 88.9547 5.28462 86.6189 5.56491C86.6002 5.56491 86.5629 5.56491 86.5442 5.56491C86.376 5.5836 86.2265 5.62097 86.0583 5.63965C14.584 14.6277 30.3177 102.321 30.3177 102.321L35.8862 116.672C36.1291 117.308 37.0447 117.252 37.1942 116.579C39.0254 108.394 45.5282 79.7486 48.8169 71.0409C50.7603 65.8836 56.1045 62.8938 61.5048 63.8842C69.8201 65.3977 83.0872 67.2663 97.6998 67.2663C97.7558 67.2663 97.8119 67.2663 97.8493 67.2663C97.9053 67.2663 97.9614 67.2663 97.9987 67.2663C112.63 67.2663 125.878 65.3977 134.194 63.8842C139.613 62.8938 144.957 65.9023 146.882 71.0409C150.17 79.786 156.692 108.6 158.504 116.672C158.654 117.326 159.569 117.401 159.812 116.766C161.569 112.356 165.399 102.321 165.399 102.321Z" fill="url(#paint1_radial_17_261)"/>
<path d="M152.598 133.414C163.122 133.414 171.678 125.217 171.678 115.138C171.678 105.06 163.122 96.8627 152.598 96.8627H44.3081C33.7849 96.8627 25.2285 105.06 25.2285 115.138C25.2285 125.217 33.7849 133.414 44.3081 133.414H152.598Z" fill="#F4B683"/>
<path d="M98.4456 173.029C129.183 173.029 162.274 149.613 162.274 98.2032C162.274 74.3142 155.283 52.3059 142.592 36.2268C130.733 21.1956 114.64 12.5818 98.4456 12.5818C82.2516 12.5818 66.1581 21.1956 54.2998 36.2268C41.6087 52.3059 34.6171 74.3142 34.6171 98.2032C34.6171 121.518 41.4939 141 54.5151 154.509C66.0146 166.453 81.62 173.029 98.4456 173.029Z" fill="#FFE2CA"/>
<path d="M91.167 122.288C91.368 122.202 91.569 122.159 91.77 122.13H105.121C105.322 122.159 105.523 122.202 105.724 122.288C106.93 122.776 107.605 124.039 107.031 125.36C106.457 126.695 103.801 130.442 98.4457 130.442C93.0908 130.442 90.4348 126.695 89.8606 125.36C89.2863 124.025 89.9611 122.776 91.167 122.288Z" fill="#F4B683"/>
<path d="M144.127 88.7154C138.283 80.36 124.86 80.0441 117.596 86.5619C116.189 87.8253 114.366 89.6773 115.285 91.7446C116.117 93.6253 118.127 93.7832 119.764 93.0654C124.774 90.8688 128.966 90.2372 133.977 91.1416C135.269 91.3713 136.518 91.7446 137.767 92.1466C138.757 92.4624 139.647 93.0366 140.638 93.3381C143.337 94.1852 145.749 91.156 144.127 88.7154Z" fill="#4F4B48"/>
<path d="M56.4377 93.2532C61.1178 90.9849 64.4629 90.267 69.3871 90.8844C71.8277 91.1858 74.1821 91.8319 76.4505 92.765C78.0153 93.4111 79.7524 93.9997 81.0732 92.521C84.5331 88.6735 76.3069 84.1799 73.6079 83.1606C68.5114 81.2369 62.6109 81.7106 57.8446 84.2948C55.8634 85.3715 53.5951 86.9507 52.5614 89.0324C51.3268 91.4873 53.8535 94.3155 56.4377 93.2532Z" fill="#4F4B48"/>
<path d="M129.829 115.484C124.691 115.484 120.526 111.171 120.526 105.851C120.526 100.53 124.691 96.2174 129.829 96.2174C134.967 96.2174 139.132 100.53 139.132 105.851C139.132 111.171 134.967 115.484 129.829 115.484Z" fill="#404040"/>
<path d="M67.0627 115.484C61.9248 115.484 57.7597 111.171 57.7597 105.851C57.7597 100.53 61.9248 96.2174 67.0627 96.2174C72.2005 96.2174 76.3656 100.53 76.3656 105.851C76.3656 111.171 72.2005 115.484 67.0627 115.484Z" fill="#404040"/>
<path d="M82.5676 140.617C88.5829 144.191 108.28 144.191 114.295 140.617C117.741 138.564 121.272 141.708 119.837 144.838C118.43 147.924 107.677 155.074 98.374 155.074C89.0854 155.074 78.4617 147.924 77.0548 144.838C75.6335 141.693 79.1077 138.564 82.5676 140.617Z" fill="#F7A796"/>
<path d="M41.0492 23.7538C49.62 14.8241 57.7457 11.0484 58.5353 10.9479C68.4699 6.3969 81.2902 2.93701 97.9005 2.93701C170.903 2.93701 175.971 62.717 173.027 88.903C171.233 104.896 164.916 112.548 161.198 115.749C161.198 115.749 160.767 97.5599 156.934 82.9164C153.905 71.3164 146.655 62.717 146.655 62.717C146.655 62.717 133.49 74.1877 108.941 81.6243C97.1109 85.2134 81.9362 83.4045 81.9362 83.4045L90.4495 68.3447C90.4495 68.3447 76.5526 78.5808 67.8813 80.5476C56.7838 83.06 48.6437 81.9832 48.6437 81.9832L52.721 66.0764C52.721 66.0764 45.672 70.7278 40.3888 83.3902C35.1057 96.0668 36.4982 116.568 36.4982 116.568C32.8948 113.984 25.1854 106.504 23.6349 88.8886C21.1082 59.9031 24.5824 42.5463 41.0492 23.7538Z" fill="#4F4B48"/>
<path d="M58.5353 10.9479C68.4699 6.3969 81.2902 2.93701 97.9005 2.93701C170.903 2.93701 175.971 62.717 173.027 88.903C171.233 104.896 164.916 112.548 161.198 115.749C161.198 115.749 160.767 97.5599 156.934 82.9164C153.905 71.3164 146.655 62.717 146.655 62.717C146.655 62.717 133.49 74.1877 108.941 81.6243C97.1109 85.2134 81.9362 83.4045 81.9362 83.4045L90.4496 68.3447C90.4496 68.3447 76.5526 78.5808 67.8813 80.5476C56.7838 83.06 48.6438 81.9832 48.6438 81.9832L52.721 66.0764C52.721 66.0764 45.672 70.7278 40.3888 83.3902C35.1057 96.0668 36.4983 116.568 36.4983 116.568C32.8948 113.984 25.1854 106.504 23.6349 88.8886C21.1082 59.9031 24.5824 42.5463 41.0492 23.7538C49.62 14.8241 57.7457 11.0484 58.5353 10.9479Z" fill="url(#paint2_radial_17_261)"/>
</g>
<defs>
<linearGradient id="paint0_linear_17_261" x1="97.8868" y1="186.281" x2="97.8868" y2="226.695" gradientUnits="userSpaceOnUse">
<stop stop-color="#00BFA5"/>
<stop offset="0.7047" stop-color="#00B29A"/>
<stop offset="1" stop-color="#00AB94"/>
</linearGradient>
<radialGradient id="paint1_radial_17_261" cx="0" cy="0" r="1" gradientUnits="userSpaceOnUse" gradientTransform="translate(96.9802 75.2716) scale(68.2248 68.2247)">
<stop offset="0.6985" stop-color="#FFEE58" stop-opacity="0"/>
<stop offset="1" stop-color="#FFEE58"/>
</radialGradient>
<radialGradient id="paint2_radial_17_261" cx="0" cy="0" r="1" gradientUnits="userSpaceOnUse" gradientTransform="translate(98.2674 73.961) rotate(178.699) scale(78.3171 73.0524)">
<stop offset="0.6985" stop-color="#6D4C41" stop-opacity="0"/>
<stop offset="1" stop-color="#12100F"/>
</radialGradient>
</defs>
</svg>
